Coordinates
version=1
nRows=17
nColumns=40
inDegrees=yes

Units are S.I. units (second, meters, Newtons, ...)
Angles are in degrees.

endheader
time	pelvis_tilt	pelvis_list	pelvis_rotation	pelvis_tx	pelvis_ty	pelvis_tz	hip_flexion_r	hip_adduction_r	hip_rotation_r	knee_angle_r	knee_angle_r_beta	ankle_angle_r	subtalar_angle_r	mtp_angle_r	hip_flexion_l	hip_adduction_l	hip_rotation_l	knee_angle_l	knee_angle_l_beta	ankle_angle_l	subtalar_angle_l	mtp_angle_l	lumbar_extension	lumbar_bending	lumbar_rotation	arm_flex_r	arm_add_r	arm_rot_r	elbow_flex_r	pro_sup_r	wrist_flex_r	wrist_dev_r	arm_flex_l	arm_add_l	arm_rot_l	elbow_flex_l	pro_sup_l	wrist_flex_l	wrist_dev_l
     45.99000000	     -4.78276264	     -4.58465974	      0.98881480	      1.08816796	      0.92107768	      0.57986292	     15.40759958	      5.17731369	     -5.89039104	     24.71558363	     24.71558363	     15.75803350	     -4.10878159	     -0.80038754	     23.25805181	    -17.51235546	      1.31087138	     54.44453896	     54.44453896	      4.38713865	    -15.68296385	     -0.24672075	     -9.73609873	      5.43121582	     -0.84420861	      8.48424102	    -15.07131784	     -3.23033677	     44.58160943	     45.37342624	      0.00000000	      0.00000000	     11.76421836	     -9.20503842	     -3.45082688	     29.66535671	     44.99366562	      0.00000000	      0.00000000
     46.01100000	     -4.37642758	     -4.59660550	      1.51022905	      1.08727379	      0.91801016	      0.58131351	     15.83732097	      5.31591001	     -5.64502212	     26.76290057	     26.76290057	     16.61656719	     -5.73209727	     -1.14825556	     25.67389549	    -17.34629224	      2.72033821	     58.88593384	     58.88593384	      4.35566276	    -17.56735328	      0.16656007	     -9.84832522	      5.30345450	     -0.63952662	     11.39556880	    -15.09386786	     -3.40881432	     46.25867458	     45.34007434	      0.00000000	      0.00000000	      8.88910636	     -8.58931304	     -3.01990590	     27.89240485	     44.90018249	      0.00000000	      0.00000000
     46.03200000	     -3.82071276	     -4.61259457	      2.05720597	      1.08644745	      0.91518434	      0.58264537	     16.01931996	      5.49657895	     -5.39014963	     28.69610169	     28.69610169	     17.68052936	     -7.22536857	     -0.61139242	     28.00675925	    -17.01217589	      4.28470957	     63.44134680	     63.44134680	      6.72194747	    -18.08012720	      6.74099887	    -10.16933435	      5.21819530	     -0.36706808	     14.24823864	    -15.50793708	     -2.71385290	     49.00584805	     45.24978624	      0.00000000	      0.00000000	      5.92128029	     -8.27254526	     -0.64244805	     26.17237930	     44.57931817	      0.00000000	      0.00000000
     46.05300000	     -3.28347441	     -4.67966030	      2.65745057	      1.08574529	      0.91245220	      0.58392073	     16.05176400	      5.75457662	     -5.22421200	     30.30828955	     30.30828955	     18.46076111	     -8.73441158	     -0.72088646	     29.97389087	    -16.87382735	      5.58089567	     67.02024588	     67.02024588	      7.12107837	    -18.77172010	      7.98911407	    -10.43459607	      5.19745540	     -0.28130584	     17.51681706	    -15.52612628	     -3.01948976	     51.06877404	     45.21278083	      0.00000000	      0.00000000	      2.87400559	     -7.80765426	      0.04459289	     24.73755372	     44.43833664	      0.00000000	      0.00000000
     46.07400000	     -2.78887081	     -4.66528224	      3.28654789	      1.08503581	      0.91023702	      0.58475964	     15.95609405	      5.89193387	     -5.14471921	     31.62054452	     31.62054452	     19.32310125	     -9.83184467	     -0.16363729	     31.82661726	    -16.39042995	      7.02511706	     70.14777778	     70.14777778	      9.25398249	    -18.94642807	     13.87759135	    -10.67498624	      5.10659302	      0.07719564	     20.50880922	    -15.97409624	     -3.03050241	     53.34797444	     45.17188408	      0.00000000	      0.00000000	     -0.22845244	     -7.56870489	      2.40481253	     23.95042709	     44.03959492	      0.00000000	      0.00000000
     46.09500000	     -2.35446895	     -4.68544608	      3.96087233	      1.08441298	      0.90855693	      0.58540358	     15.69526341	      6.06164686	     -5.17291631	     32.48345333	     32.48345333	     19.87453241	    -10.87087025	     -0.12284044	     33.28207010	    -16.12785769	      8.15817111	     72.08217542	     72.08217542	      9.61669236	    -19.17402535	     14.62122338	    -10.83023064	      5.05128701	      0.21847156	     23.70619484	    -16.14443162	     -3.47185556	     55.29063760	     45.14438401	      0.00000000	      0.00000000	     -3.06007364	     -7.23096386	      3.14679022	     22.81196493	     43.87601699	      0.00000000	      0.00000000
     46.11600000	     -1.99443741	     -4.64712766	      4.70081910	      1.08373332	      0.90763915	      0.58552544	     15.27812390	      6.13484700	     -5.27270180	     32.90742617	     32.90742617	     20.32019144	    -11.72143780	      0.06136787	     34.51769073	    -15.73137325	      9.20901264	     73.11930468	     73.11930468	     10.15754611	    -19.28654552	     15.89876281	    -10.90207854	      4.97813049	      0.35578072	     26.80347957	    -16.41084838	     -3.93647324	     57.30103336	     45.11509833	      0.00000000	      0.00000000	     -5.70833186	     -6.94357828	      3.95848793	     21.98975511	     43.68839532	      0.00000000	      0.00000000
     46.13700000	     -1.75036072	     -4.48355089	      5.42320831	      1.08301848	      0.90756915	      0.58523344	     14.74700443	      5.98662983	     -5.54201456	     32.90808392	     32.90808392	     20.61216204	    -12.10743405	      0.09101567	     35.44745329	    -15.27441623	      9.93586857	     73.06643231	     73.06643231	     10.31709634	    -19.36845483	     16.05920862	    -10.84518681	      4.73365765	      1.27365227	     29.56303549	    -17.56193537	     -4.43741578	     58.39501540	     45.11267879	      0.00000000	      0.00000000	     -7.73291908	     -6.70841900	      4.09820682	     21.32426634	     43.62532987	      0.00000000	      0.00000000
     46.15800000	     -1.55744898	     -4.44226541	      6.30955155	      1.08207904	      0.90818587	      0.58434115	     14.08632185	      5.97084050	     -5.87143078	     32.49106843	     32.49106843	     20.71872272	    -12.66501183	      0.44756895	     36.26713685	    -14.80317120	     10.75352321	     72.16104427	     72.16104427	     10.80420461	    -19.37666543	     17.22015143	    -10.84468077	      4.78142807	      0.74232619	     32.75534247	    -17.26103924	     -4.91440249	     61.16145913	     45.05646501	      0.00000000	      0.00000000	    -10.19624110	     -6.44178271	      4.89991923	     20.85837091	     43.41686313	      0.00000000	      0.00000000
     46.17900000	     -1.52002456	     -4.24823337	      7.17504926	      1.08103760	      0.90951053	      0.58302134	     13.38527517	      5.70917025	     -6.33032627	     31.72869141	     31.72869141	     20.73903115	    -12.79514381	      0.74083844	     36.82031237	    -14.24195198	     11.19209729	     70.20589297	     70.20589297	     11.08945625	    -19.36391411	     17.93005136	    -10.67398150	      4.63525427	      0.87897274	     35.48506687	    -17.78293192	     -5.47435037	     63.41427309	     45.02179314	      0.00000000	      0.00000000	    -12.25914552	     -6.36292435	      5.81992854	     21.05213137	     43.18390505	      0.00000000	      0.00000000
     46.20000000	     -1.81215781	     -4.01058827	      8.01236521	      1.07960566	      0.91094253	      0.58132386	     13.02355669	      5.32317242	     -6.80125248	     30.91368154	     30.91368154	     20.62026303	    -12.91321310	      0.97758089	     37.39668533	    -13.62711304	     11.35125826	     67.36071757	     67.36071757	     11.15400618	    -19.33826536	     18.14045694	    -10.16669516	      4.35048246	      1.39457032	     38.19548151	    -18.82167506	     -5.94237916	     64.58117227	     45.01445335	      0.00000000	      0.00000000	    -13.68822921	     -6.24323021	      5.98570016	     20.74648404	     43.12254262	      0.00000000	      0.00000000
     46.22100000	     -1.71347940	     -3.81077045	      8.90265209	      1.07837756	      0.91364104	      0.57921370	     11.84107570	      5.01101293	     -7.49963079	     29.37387744	     29.37387744	     20.36650104	    -12.53254741	      1.26034509	     37.07064555	    -13.11488928	     11.36010674	     63.50985830	     63.50985830	     11.15408089	    -19.27449016	     17.94090247	    -10.20860896	      4.27869117	      1.17629265	     40.95793085	    -18.95792948	     -6.33375680	     66.90967748	     44.96753330	      0.00000000	      0.00000000	    -15.26242790	     -6.08457628	      6.55328430	     20.88528066	     42.97065267	      0.00000000	      0.00000000
     46.24200000	     -2.00567938	     -3.62455898	      9.74874865	      1.07681959	      0.91573886	      0.57690164	     11.15317339	      4.62191230	     -8.26225250	     27.92579715	     27.92579715	     19.73489362	    -12.25136836	      0.45439202	     36.78389896	    -12.67330829	     11.02209213	     58.80433604	     58.80433604	      9.90111071	    -19.18954148	     14.37233978	     -9.83676707	      4.17949174	      1.84005884	     42.73590195	    -20.02623681	     -7.35388831	     70.43261584	     45.07210151	      0.00000000	      0.00000000	    -17.70264821	     -8.77388690	     22.92106837	     25.97620914	     40.67316415	      0.00000000	      0.00000000
     46.26300000	     -2.28773353	     -3.39351743	     10.51683438	      1.07516304	      0.91799969	      0.57422255	     10.41855145	      4.17947260	     -8.98846380	     26.46995179	     26.46995179	     19.44419554	    -11.69286884	      0.72691962	     36.16685610	    -12.01325600	     10.69793786	     53.71109418	     53.71109418	      9.70741148	    -18.92670608	     14.07349584	     -9.51807295	      3.99255892	      1.88702421	     45.32031719	    -20.49136920	     -7.64331712	     71.96254405	     45.04859665	      0.00000000	      0.00000000	    -18.64051118	     -8.57675198	     22.98972206	     26.01703932	     40.71355936	      0.00000000	      0.00000000
     46.28400000	     -2.57193860	     -3.15370366	     11.18722307	      1.07347501	      0.92009732	      0.57137178	      9.71031450	      3.72455255	     -9.67534742	     25.08167711	     25.08167711	     19.15839525	    -11.10280737	      0.92192041	     35.18548041	    -11.33476349	     10.26438611	     48.16177620	     48.16177620	      9.37821202	    -18.40633245	     13.66386153	     -9.22884532	      3.79001789	      1.95294129	     47.66792762	    -20.87172444	     -7.85809500	     73.31100937	     45.02601543	      0.00000000	      0.00000000	    -19.36684039	     -8.41979083	     23.03383230	     26.14307218	     40.73990191	      0.00000000	      0.00000000
     46.30500000	     -2.83124882	     -3.13991543	     11.79818294	      1.07196718	      0.92151783	      0.56846509	      8.99961920	      3.47701152	    -10.59857598	     23.68052532	     23.68052532	     18.72570152	    -10.19666789	      0.22658849	     33.79145769	    -11.09968177	      9.46636970	     41.89767712	     41.89767712	      6.37588387	    -17.83367453	      5.86876482	     -8.98446147	      3.82731833	      2.07231832	     49.71999453	    -21.30615056	     -8.17019692	     75.37999865	     45.01721985	      0.00000000	      0.00000000	    -20.19793966	     -8.46600856	     23.10700766	     27.41013803	     41.10889198	      0.00000000	      0.00000000
     46.32600000	     -3.16844354	     -3.06653392	     12.26934145	      1.07043908	      0.92241853	      0.56550972	      8.56445660	      3.20741297	    -11.10805238	     22.67493073	     22.67493073	     18.58074072	     -9.78135827	      0.33526472	     32.62370025	    -10.61755336	      8.79470552	     36.49157707	     36.49157707	      6.48604027	    -15.89898275	      6.34133994	     -8.62044976	      3.74757711	      2.19330163	     51.82187690	    -21.54561398	     -8.29615423	     76.22376468	     45.00639269	      0.00000000	      0.00000000	    -20.49092586	     -8.22552829	     23.18977949	     27.41785617	     41.12625852	      0.00000000	      0.00000000
